<svg xmlns="http://www.w3.org/2000/svg" xmlns:xlink="http://www.w3.org/1999/xlink" version="1.1" width="256" height="256" viewBox="0 0 256 256" xml:space="preserve">
<desc>Created with Fabric.js 1.7.22</desc>
<defs>
</defs>
<g transform="translate(128 128) scale(0.72 0.72)" style="">
	<g style="stroke: none; stroke-width: 0; stroke-dasharray: none; stroke-linecap: butt; stroke-linejoin: miter; stroke-miterlimit: 10; fill: none; fill-rule: nonzero; opacity: 1;" transform="translate(-175.05 -175.05000000000004) scale(3.89 3.89)" >
	<path d="M 45 38.447 c -1.104 0 -2 -0.896 -2 -2 V 25.769 c 0 -1.104 0.896 -2 2 -2 c 2.186 0 3.963 -1.778 3.963 -3.964 S 47.186 15.841 45 15.841 s -3.964 1.778 -3.964 3.964 c 0 1.104 -0.896 2 -2 2 s -2 -0.896 -2 -2 c 0 -4.391 3.573 -7.964 7.964 -7.964 c 4.391 0 7.963 3.573 7.963 7.964 c 0 3.7 -2.537 6.82 -5.963 7.71 v 8.933 C 47 37.552 46.105 38.447 45 38.447 z" style="stroke: none; stroke-width: 1; stroke-dasharray: none; stroke-linecap: butt; stroke-linejoin: miter; stroke-miterlimit: 10; fill: rgb(229,224,207); fill-rule: nonzero; opacity: 1;" transform=" matrix(1 0 0 1 0 0) " stroke-linecap="round" />
	<path d="M 44.368 15.891 c -0.177 -0.034 -0.354 -0.05 -0.539 -0.05 c -1.864 0 -3.381 1.778 -3.381 3.964 c 0 1.05 -0.693 1.902 -1.57 1.984 c 0.053 0.004 0.104 0.016 0.159 0.016 c 1.104 0 2 -0.896 2 -2 C 41.036 17.836 42.484 16.197 44.368 15.891 z" style="stroke: none; stroke-width: 1; stroke-dasharray: none; stroke-linecap: butt; stroke-linejoin: miter; stroke-miterlimit: 10; fill: rgb(206,200,186); fill-rule: nonzero; opacity: 1;" transform=" matrix(1 0 0 1 0 0) " stroke-linecap="round" />
	<path d="M 45 11.841 c -0.213 0 -0.423 0.016 -0.632 0.032 c 3.493 0.324 6.253 3.754 6.253 7.932 c 0 3.7 -2.164 6.82 -5.086 7.71 v 8.933 c 0 0.882 -0.49 1.622 -1.167 1.888 c 0.2 0.067 0.41 0.112 0.632 0.112 c 1.104 0 2 -0.896 2 -2 v -8.933 c 3.426 -0.89 5.963 -4.01 5.963 -7.71 C 52.963 15.414 49.391 11.841 45 11.841 z" style="stroke: none; stroke-width: 1; stroke-dasharray: none; stroke-linecap: butt; stroke-linejoin: miter; stroke-miterlimit: 10; fill: rgb(206,200,186); fill-rule: nonzero; opacity: 1;" transform=" matrix(1 0 0 1 0 0) " stroke-linecap="round" />
	<path d="M 86.421 69.106 H 3.579 c -1.581 0 -2.863 -1.282 -2.863 -2.863 s 1.282 -2.863 2.863 -2.863 h 82.843 c 1.581 0 2.863 1.282 2.863 2.863 S 88.002 69.106 86.421 69.106 z" style="stroke: none; stroke-width: 1; stroke-dasharray: none; stroke-linecap: butt; stroke-linejoin: miter; stroke-miterlimit: 10; fill: rgb(229,224,207); fill-rule: nonzero; opacity: 1;" transform=" matrix(1 0 0 1 0 0) " stroke-linecap="round" />
	<path d="M 7.218 63.38 H 3.579 l -0.006 4.062 l 0.006 1.645 l -0.006 0.018 h 82.848 l -1.4 -1.664 l -71.479 0 C 10.69 67.361 8.865 65.416 7.218 63.38 z" style="stroke: none; stroke-width: 1; stroke-dasharray: none; stroke-linecap: butt; stroke-linejoin: miter; stroke-miterlimit: 10; fill: rgb(206,200,186); fill-rule: nonzero; opacity: 1;" transform=" matrix(1 0 0 1 0 0) " stroke-linecap="round" />
	<path d="M 88.362 62.34 L 59.121 43.439 c -0.526 -0.369 -1.045 -0.716 -1.559 -1.047 c -1.411 -7.732 -7.349 -11.311 -12.744 -11.325 c -0.01 0 -0.02 0 -0.031 0 c -5.688 0 -11.653 4.058 -12.913 11.836 c -0.268 0.18 -0.533 0.35 -0.804 0.54 L 1.647 62.335 c -1.665 1.069 -2.148 3.285 -1.079 4.95 c 0.684 1.066 1.839 1.647 3.018 1.647 c 0.663 0 1.333 -0.183 1.932 -0.568 L 38.06 47.469 c 5.155 -2.944 9.022 -2.925 14.196 0.064 l 32.216 20.825 c 1.661 1.075 3.879 0.602 4.954 -1.064 C 90.499 65.632 90.023 63.415 88.362 62.34 z" style="stroke: none; stroke-width: 1; stroke-dasharray: none; stroke-linecap: butt; stroke-linejoin: miter; stroke-miterlimit: 10; fill: rgb(229,168,61); fill-rule: nonzero; opacity: 1;" transform=" matrix(1 0 0 1 0 0) " stroke-linecap="round" />
	<path d="M 35.06 47.469 L 2.518 68.364 c -0.135 0.087 -0.274 0.159 -0.415 0.226 c 0.468 0.213 0.969 0.342 1.483 0.342 c 0.663 0 1.333 -0.183 1.932 -0.568 L 38.06 47.469 c 1.987 -1.135 3.782 -1.824 5.535 -2.078 C 40.839 44.996 38.186 45.684 35.06 47.469 z" style="stroke: none; stroke-width: 1; stroke-dasharray: none; stroke-linecap: butt; stroke-linejoin: miter; stroke-miterlimit: 10; fill: rgb(196,139,48); fill-rule: nonzero; opacity: 1;" transform=" matrix(1 0 0 1 0 0) " stroke-linecap="round" />
	<path d="M 88.362 62.34 L 59.121 43.439 c -0.526 -0.369 -1.045 -0.716 -1.559 -1.047 c -1.411 -7.732 -7.349 -11.311 -12.744 -11.325 c -0.01 0 -0.02 0 -0.031 0 c -0.495 0 -0.992 0.042 -1.488 0.103 c 4.956 0.607 9.979 4.193 11.262 11.222 c 0.513 0.331 1.032 0.678 1.559 1.047 L 85.362 62.34 c 1.661 1.075 2.137 3.292 1.064 4.954 c -0.381 0.59 -0.908 1.021 -1.5 1.296 c 1.593 0.735 3.52 0.223 4.5 -1.296 C 90.499 65.632 90.023 63.415 88.362 62.34 z" style="stroke: none; stroke-width: 1; stroke-dasharray: none; stroke-linecap: butt; stroke-linejoin: miter; stroke-miterlimit: 10; fill: rgb(196,139,48); fill-rule: nonzero; opacity: 1;" transform=" matrix(1 0 0 1 0 0) " stroke-linecap="round" />
</g>
</g>
</svg>